<svg xmlns="http://www.w3.org/2000/svg" xmlns:xlink="http://www.w3.org/1999/xlink" contentStyleType="text/css" height="621px" preserveAspectRatio="none" style="width:2038px;height:621px;background:#FFFFFF;" version="1.1" viewBox="0 0 2038 621" width="2038px" zoomAndPan="magnify"><defs/><g><!--cluster d48bac364ad5e16c8a0b13f87d5ae9d5--><g id="cluster_d48bac364ad5e16c8a0b13f87d5ae9d5"><polygon fill="none" points="16,16,26,6,256,6,256,503.48,246,513.48,16,513.48,16,16" style="stroke:#181818;stroke-width:1.0;"/><line style="stroke:#181818;stroke-width:1.0;" x1="246" x2="256" y1="16" y2="6"/><line style="stroke:#181818;stroke-width:1.0;" x1="16" x2="246" y1="16" y2="16"/><line style="stroke:#181818;stroke-width:1.0;" x1="246" x2="246" y1="16" y2="513.48"/><text fill="#000000" font-family="sans-serif" font-size="14" font-weight="bold" lengthAdjust="spacing" textLength="51" x="106.5" y="31.9951">Celery</text></g><!--cluster a51e47f646375ab6bf5dd2c42d3e6181--><g id="cluster_a51e47f646375ab6bf5dd2c42d3e6181"><polygon fill="none" points="508,16,518,6,734,6,734,147.19,724,157.19,508,157.19,508,16" style="stroke:#181818;stroke-width:1.0;"/><line style="stroke:#181818;stroke-width:1.0;" x1="724" x2="734" y1="16" y2="6"/><line style="stroke:#181818;stroke-width:1.0;" x1="508" x2="724" y1="16" y2="16"/><line style="stroke:#181818;stroke-width:1.0;" x1="724" x2="724" y1="16" y2="157.19"/><text fill="#000000" font-family="sans-serif" font-size="14" font-weight="bold" lengthAdjust="spacing" textLength="49" x="592.5" y="31.9951">Rabbit</text></g><!--cluster 86a1b907d54bf7010394bf316e183e67--><g id="cluster_86a1b907d54bf7010394bf316e183e67"><polygon fill="none" points="758,16,768,6,958,6,958,147.19,948,157.19,758,157.19,758,16" style="stroke:#181818;stroke-width:1.0;"/><line style="stroke:#181818;stroke-width:1.0;" x1="948" x2="958" y1="16" y2="6"/><line style="stroke:#181818;stroke-width:1.0;" x1="758" x2="948" y1="16" y2="16"/><line style="stroke:#181818;stroke-width:1.0;" x1="948" x2="948" y1="16" y2="157.19"/><text fill="#000000" font-family="sans-serif" font-size="14" font-weight="bold" lengthAdjust="spacing" textLength="43" x="832.5" y="31.9951">Redis</text></g><!--cluster bd96e70e103d25f4057afc76f9d3d180--><g id="cluster_bd96e70e103d25f4057afc76f9d3d180"><polygon fill="none" points="982,16,992,6,1316,6,1316,147.19,1306,157.19,982,157.19,982,16" style="stroke:#181818;stroke-width:1.0;"/><line style="stroke:#181818;stroke-width:1.0;" x1="1306" x2="1316" y1="16" y2="6"/><line style="stroke:#181818;stroke-width:1.0;" x1="982" x2="1306" y1="16" y2="16"/><line style="stroke:#181818;stroke-width:1.0;" x1="1306" x2="1306" y1="16" y2="157.19"/><text fill="#000000" font-family="sans-serif" font-size="14" font-weight="bold" lengthAdjust="spacing" textLength="83" x="1103.5" y="31.9951">Dynamodb</text></g><!--cluster d0ae803a3ad5a87b5d55518b928766de--><g id="cluster_d0ae803a3ad5a87b5d55518b928766de"><polygon fill="none" points="1340,16,1350,6,1788,6,1788,147.19,1778,157.19,1340,157.19,1340,16" style="stroke:#181818;stroke-width:1.0;"/><line style="stroke:#181818;stroke-width:1.0;" x1="1778" x2="1788" y1="16" y2="6"/><line style="stroke:#181818;stroke-width:1.0;" x1="1340" x2="1778" y1="16" y2="16"/><line style="stroke:#181818;stroke-width:1.0;" x1="1778" x2="1778" y1="16" y2="157.19"/><text fill="#000000" font-family="sans-serif" font-size="14" font-weight="bold" lengthAdjust="spacing" textLength="57" x="1531.5" y="31.9951">Azurite</text></g><!--cluster e3e2a9bfd88566b05001b02a3f51d286--><g id="cluster_e3e2a9bfd88566b05001b02a3f51d286"><polygon fill="none" points="280,16,290,6,484,6,484,503.48,474,513.48,280,513.48,280,16" style="stroke:#181818;stroke-width:1.0;"/><line style="stroke:#181818;stroke-width:1.0;" x1="474" x2="484" y1="16" y2="6"/><line style="stroke:#181818;stroke-width:1.0;" x1="280" x2="474" y1="16" y2="16"/><line style="stroke:#181818;stroke-width:1.0;" x1="474" x2="474" y1="16" y2="513.48"/><text fill="#000000" font-family="sans-serif" font-size="14" font-weight="bold" lengthAdjust="spacing" textLength="39" x="358.5" y="31.9951">Docs</text></g><!--cluster 6c9a0d4cca755a55565d756784c1585e--><g id="cluster_6c9a0d4cca755a55565d756784c1585e"><path d="M1814.5,19.15 L1820.5,19.15 A3.75,3.75 0 0 1 1823,21.65 L1830,41.4469 L2028.5,41.4469 A2.5,2.5 0 0 1 2031,43.9469 L2031,146.54 A2.5,2.5 0 0 1 2028.5,149.04 L1814.5,149.04 A2.5,2.5 0 0 1 1812,146.54 L1812,21.65 A2.5,2.5 0 0 1 1814.5,19.15 " fill="none" style="stroke:#000000;stroke-width:1.5;"/><line style="stroke:#000000;stroke-width:1.5;" x1="1812" x2="1830" y1="41.4469" y2="41.4469"/><text fill="#000000" font-family="sans-serif" font-size="14" font-weight="bold" lengthAdjust="spacing" textLength="5" x="1816" y="34.1451">&#160;</text></g><!--entity 08b7fccb45858be7a476d4e427762e0d--><g id="elem_08b7fccb45858be7a476d4e427762e0d"><rect fill="#F1F1F1" height="95.1875" rx="2.5" ry="2.5" style="stroke:#181818;stroke-width:0.5;" width="208" x="32" y="46"/><rect fill="#F1F1F1" height="10" style="stroke:#181818;stroke-width:0.5;" width="15" x="220" y="51"/><rect fill="#F1F1F1" height="2" style="stroke:#181818;stroke-width:0.5;" width="4" x="218" y="53"/><rect fill="#F1F1F1" height="2" style="stroke:#181818;stroke-width:0.5;" width="4" x="218" y="57"/><text fill="#000000" font-family="sans-serif" font-size="14" font-weight="bold" lengthAdjust="spacing" textLength="49" x="47" y="78.9951">celery</text><text fill="#000000" font-family="sans-serif" font-size="14" lengthAdjust="spacing" textLength="4" x="47" y="95.292">&#160;</text><text fill="#000000" font-family="sans-serif" font-size="14" lengthAdjust="spacing" textLength="168" x="47" y="111.5889">image: celery/celery:dev</text><text fill="#000000" font-family="sans-serif" font-size="14" lengthAdjust="spacing" textLength="4" x="47" y="127.8857">&#160;</text></g><!--entity 7f34b439b4ed78c9233cfbc4b0643660--><g id="elem_7f34b439b4ed78c9233cfbc4b0643660"><rect fill="#F1F1F1" height="39.2969" rx="2.5" ry="2.5" style="stroke:#181818;stroke-width:0.5;" width="195" x="38.5" y="458.19"/><polygon fill="#F1F1F1" points="216.5,463.19,216.5,477.19,228.5,477.19,228.5,469.19,222.5,463.19,216.5,463.19" style="stroke:#181818;stroke-width:0.5;"/><line style="stroke:#181818;stroke-width:0.5;" x1="222.5" x2="222.5" y1="463.19" y2="469.19"/><line style="stroke:#181818;stroke-width:0.5;" x1="228.5" x2="222.5" y1="469.19" y2="469.19"/><text fill="#000000" font-family="sans-serif" font-size="14" lengthAdjust="spacing" textLength="165" x="48.5" y="484.1851">/home/developer/celery</text></g><!--entity 038fb8c3fee57893b86ddfe6e34a5e50--><g id="elem_038fb8c3fee57893b86ddfe6e34a5e50"><rect fill="#F1F1F1" height="95.1875" rx="2.5" ry="2.5" style="stroke:#181818;stroke-width:0.5;" width="195" x="523.5" y="46"/><rect fill="#F1F1F1" height="10" style="stroke:#181818;stroke-width:0.5;" width="15" x="698.5" y="51"/><rect fill="#F1F1F1" height="2" style="stroke:#181818;stroke-width:0.5;" width="4" x="696.5" y="53"/><rect fill="#F1F1F1" height="2" style="stroke:#181818;stroke-width:0.5;" width="4" x="696.5" y="57"/><text fill="#000000" font-family="sans-serif" font-size="14" font-weight="bold" lengthAdjust="spacing" textLength="46" x="538.5" y="78.9951">rabbit</text><text fill="#000000" font-family="sans-serif" font-size="14" lengthAdjust="spacing" textLength="4" x="538.5" y="95.292">&#160;</text><text fill="#000000" font-family="sans-serif" font-size="14" lengthAdjust="spacing" textLength="155" x="538.5" y="111.5889">image: rabbitmq:latest</text><text fill="#000000" font-family="sans-serif" font-size="14" lengthAdjust="spacing" textLength="4" x="538.5" y="127.8857">&#160;</text></g><!--entity 3c217ea98bfddc0f9ff1c849de325d93--><g id="elem_3c217ea98bfddc0f9ff1c849de325d93"><rect fill="#F1F1F1" height="95.1875" rx="2.5" ry="2.5" style="stroke:#181818;stroke-width:0.5;" width="168" x="774" y="46"/><rect fill="#F1F1F1" height="10" style="stroke:#181818;stroke-width:0.5;" width="15" x="922" y="51"/><rect fill="#F1F1F1" height="2" style="stroke:#181818;stroke-width:0.5;" width="4" x="920" y="53"/><rect fill="#F1F1F1" height="2" style="stroke:#181818;stroke-width:0.5;" width="4" x="920" y="57"/><text fill="#000000" font-family="sans-serif" font-size="14" font-weight="bold" lengthAdjust="spacing" textLength="40" x="789" y="78.9951">redis</text><text fill="#000000" font-family="sans-serif" font-size="14" lengthAdjust="spacing" textLength="4" x="789" y="95.292">&#160;</text><text fill="#000000" font-family="sans-serif" font-size="14" lengthAdjust="spacing" textLength="128" x="789" y="111.5889">image: redis:latest</text><text fill="#000000" font-family="sans-serif" font-size="14" lengthAdjust="spacing" textLength="4" x="789" y="127.8857">&#160;</text></g><!--entity 96595c0d46f4e6d3a5b4b33aa1b3e923--><g id="elem_96595c0d46f4e6d3a5b4b33aa1b3e923"><rect fill="#F1F1F1" height="95.1875" rx="2.5" ry="2.5" style="stroke:#181818;stroke-width:0.5;" width="303" x="997.5" y="46"/><rect fill="#F1F1F1" height="10" style="stroke:#181818;stroke-width:0.5;" width="15" x="1280.5" y="51"/><rect fill="#F1F1F1" height="2" style="stroke:#181818;stroke-width:0.5;" width="4" x="1278.5" y="53"/><rect fill="#F1F1F1" height="2" style="stroke:#181818;stroke-width:0.5;" width="4" x="1278.5" y="57"/><text fill="#000000" font-family="sans-serif" font-size="14" font-weight="bold" lengthAdjust="spacing" textLength="82" x="1012.5" y="78.9951">dynamodb</text><text fill="#000000" font-family="sans-serif" font-size="14" lengthAdjust="spacing" textLength="4" x="1012.5" y="95.292">&#160;</text><text fill="#000000" font-family="sans-serif" font-size="14" lengthAdjust="spacing" textLength="263" x="1012.5" y="111.5889">image: amazon/dynamodb-local:latest</text><text fill="#000000" font-family="sans-serif" font-size="14" lengthAdjust="spacing" textLength="4" x="1012.5" y="127.8857">&#160;</text></g><!--entity 9058d1b018bd4bc47c57d4f1b5a4dcd2--><g id="elem_9058d1b018bd4bc47c57d4f1b5a4dcd2"><rect fill="#F1F1F1" height="95.1875" rx="2.5" ry="2.5" style="stroke:#181818;stroke-width:0.5;" width="416" x="1356" y="46"/><rect fill="#F1F1F1" height="10" style="stroke:#181818;stroke-width:0.5;" width="15" x="1752" y="51"/><rect fill="#F1F1F1" height="2" style="stroke:#181818;stroke-width:0.5;" width="4" x="1750" y="53"/><rect fill="#F1F1F1" height="2" style="stroke:#181818;stroke-width:0.5;" width="4" x="1750" y="57"/><text fill="#000000" font-family="sans-serif" font-size="14" font-weight="bold" lengthAdjust="spacing" textLength="55" x="1371" y="78.9951">azurite</text><text fill="#000000" font-family="sans-serif" font-size="14" lengthAdjust="spacing" textLength="4" x="1371" y="95.292">&#160;</text><text fill="#000000" font-family="sans-serif" font-size="14" lengthAdjust="spacing" textLength="376" x="1371" y="111.5889">image: mcr.microsoft.com/azure-storage/azurite:latest</text><text fill="#000000" font-family="sans-serif" font-size="14" lengthAdjust="spacing" textLength="4" x="1371" y="127.8857">&#160;</text></g><!--entity a3b6110a402cbfd9b5b8ae1e92bbdc41--><g id="elem_a3b6110a402cbfd9b5b8ae1e92bbdc41"><rect fill="#F1F1F1" height="95.1875" rx="2.5" ry="2.5" style="stroke:#181818;stroke-width:0.5;" width="171" x="296.5" y="46"/><rect fill="#F1F1F1" height="10" style="stroke:#181818;stroke-width:0.5;" width="15" x="447.5" y="51"/><rect fill="#F1F1F1" height="2" style="stroke:#181818;stroke-width:0.5;" width="4" x="445.5" y="53"/><rect fill="#F1F1F1" height="2" style="stroke:#181818;stroke-width:0.5;" width="4" x="445.5" y="57"/><text fill="#000000" font-family="sans-serif" font-size="14" font-weight="bold" lengthAdjust="spacing" textLength="38" x="311.5" y="78.9951">docs</text><text fill="#000000" font-family="sans-serif" font-size="14" lengthAdjust="spacing" textLength="4" x="311.5" y="95.292">&#160;</text><text fill="#000000" font-family="sans-serif" font-size="14" lengthAdjust="spacing" textLength="131" x="311.5" y="111.5889">image: celery/docs</text><text fill="#000000" font-family="sans-serif" font-size="14" lengthAdjust="spacing" textLength="4" x="311.5" y="127.8857">&#160;</text></g><!--entity 8d345fc053c09834ac60f47bb94e34ed--><g id="elem_8d345fc053c09834ac60f47bb94e34ed"><ellipse cx="441" cy="233.19" fill="#F1F1F1" rx="8" ry="8" style="stroke:#181818;stroke-width:0.5;"/><text fill="#000000" font-family="sans-serif" font-size="14" lengthAdjust="spacing" textLength="36" x="423" y="263.1851">7000</text></g><!--entity bc3d41b943e740d9690037b1963e934f--><g id="elem_bc3d41b943e740d9690037b1963e934f"><rect fill="#F1F1F1" height="39.2969" rx="2.5" ry="2.5" style="stroke:#181818;stroke-width:0.5;" width="69" x="343.5" y="458.19"/><polygon fill="#F1F1F1" points="395.5,463.19,395.5,477.19,407.5,477.19,407.5,469.19,401.5,463.19,395.5,463.19" style="stroke:#181818;stroke-width:0.5;"/><line style="stroke:#181818;stroke-width:0.5;" x1="401.5" x2="401.5" y1="463.19" y2="469.19"/><line style="stroke:#181818;stroke-width:0.5;" x1="407.5" x2="401.5" y1="469.19" y2="469.19"/><text fill="#000000" font-family="sans-serif" font-size="14" lengthAdjust="spacing" textLength="39" x="353.5" y="484.1851">/docs</text></g><!--entity df1542fe5a51c0c25f7e08a5b581be3d--><g id="elem_df1542fe5a51c0c25f7e08a5b581be3d"><rect fill="#F1F1F1" height="78.8906" rx="2.5" ry="2.5" style="stroke:#181818;stroke-width:0.5;" width="70" x="1828" y="54.15"/><rect fill="#F1F1F1" height="10" style="stroke:#181818;stroke-width:0.5;" width="15" x="1878" y="59.15"/><rect fill="#F1F1F1" height="2" style="stroke:#181818;stroke-width:0.5;" width="4" x="1876" y="61.15"/><rect fill="#F1F1F1" height="2" style="stroke:#181818;stroke-width:0.5;" width="4" x="1876" y="65.15"/><text fill="#000000" font-family="sans-serif" font-size="14" font-weight="bold" lengthAdjust="spacing" textLength="30" x="1843" y="87.1451">urls</text><text fill="#000000" font-family="sans-serif" font-size="14" lengthAdjust="spacing" textLength="4" x="1843" y="103.442">&#160;</text><text fill="#000000" font-family="sans-serif" font-size="14" lengthAdjust="spacing" textLength="4" x="1843" y="119.7389">&#160;</text></g><!--entity 512a186874430a6dbdb24cfd15b6d995--><g id="elem_512a186874430a6dbdb24cfd15b6d995"><rect fill="#F1F1F1" height="78.8906" rx="2.5" ry="2.5" style="stroke:#181818;stroke-width:0.5;" width="82" x="1933" y="54.15"/><rect fill="#F1F1F1" height="10" style="stroke:#181818;stroke-width:0.5;" width="15" x="1995" y="59.15"/><rect fill="#F1F1F1" height="2" style="stroke:#181818;stroke-width:0.5;" width="4" x="1993" y="61.15"/><rect fill="#F1F1F1" height="2" style="stroke:#181818;stroke-width:0.5;" width="4" x="1993" y="65.15"/><text fill="#000000" font-family="sans-serif" font-size="14" font-weight="bold" lengthAdjust="spacing" textLength="42" x="1948" y="87.1451">tasks</text><text fill="#000000" font-family="sans-serif" font-size="14" lengthAdjust="spacing" textLength="4" x="1948" y="103.442">&#160;</text><text fill="#000000" font-family="sans-serif" font-size="14" lengthAdjust="spacing" textLength="4" x="1948" y="119.7389">&#160;</text></g><!--entity 389210684e3d301470430c9527287267--><g id="elem_389210684e3d301470430c9527287267"><rect fill="#F1F1F1" height="39.2969" rx="2.5" ry="2.5" style="stroke:#181818;stroke-width:0.5;" width="47" x="112.5" y="576.48"/><polygon fill="#F1F1F1" points="142.5,581.48,142.5,595.48,154.5,595.48,154.5,587.48,148.5,581.48,142.5,581.48" style="stroke:#181818;stroke-width:0.5;"/><line style="stroke:#181818;stroke-width:0.5;" x1="148.5" x2="148.5" y1="581.48" y2="587.48"/><line style="stroke:#181818;stroke-width:0.5;" x1="154.5" x2="148.5" y1="587.48" y2="587.48"/><text fill="#000000" font-family="sans-serif" font-size="14" lengthAdjust="spacing" textLength="17" x="122.5" y="602.4751">../.</text></g><!--entity 63ea1de582ea4933dc37f8abda83cc76--><g id="elem_63ea1de582ea4933dc37f8abda83cc76"><rect fill="#F1F1F1" height="39.2969" rx="2.5" ry="2.5" style="stroke:#181818;stroke-width:0.5;" width="77" x="339.5" y="576.48"/><polygon fill="#F1F1F1" points="399.5,581.48,399.5,595.48,411.5,595.48,411.5,587.48,405.5,581.48,399.5,581.48" style="stroke:#181818;stroke-width:0.5;"/><line style="stroke:#181818;stroke-width:0.5;" x1="405.5" x2="405.5" y1="581.48" y2="587.48"/><line style="stroke:#181818;stroke-width:0.5;" x1="411.5" x2="405.5" y1="587.48" y2="587.48"/><text fill="#000000" font-family="sans-serif" font-size="14" lengthAdjust="spacing" textLength="47" x="349.5" y="602.4751">../docs</text></g><!--entity ccd26c1d88e1cf763d32a2c1cf438451--><g id="elem_ccd26c1d88e1cf763d32a2c1cf438451"><ellipse cx="527" cy="368.19" fill="#F1F1F1" rx="8" ry="8" style="stroke:#181818;stroke-width:0.5;"/><text fill="#000000" font-family="sans-serif" font-size="14" lengthAdjust="spacing" textLength="36" x="509" y="398.1851">7001</text></g><!--link 7f34b439b4ed78c9233cfbc4b0643660 to 389210684e3d301470430c9527287267--><g id="link_7f34b439b4ed78c9233cfbc4b0643660_389210684e3d301470430c9527287267"><path codeLine="56" d="M136,497.78 C136,519.4 136,554.57 136,576.2 " fill="none" id="7f34b439b4ed78c9233cfbc4b0643660-389210684e3d301470430c9527287267" style="stroke:#181818;stroke-width:1.0;"/><text fill="#000000" font-family="sans-serif" font-size="13" lengthAdjust="spacing" textLength="14" x="137" y="542.5469">rw</text></g><!--link 08b7fccb45858be7a476d4e427762e0d to 7f34b439b4ed78c9233cfbc4b0643660--><g id="link_08b7fccb45858be7a476d4e427762e0d_7f34b439b4ed78c9233cfbc4b0643660"><path codeLine="57" d="M136,141.46 C136,225.99 136,394.51 136,452.01 " fill="none" id="08b7fccb45858be7a476d4e427762e0d-to-7f34b439b4ed78c9233cfbc4b0643660" style="stroke:#181818;stroke-width:1.0;stroke-dasharray:7.0,7.0;"/><polygon fill="#181818" points="136,458.01,140,449.01,136,453.01,132,449.01,136,458.01" style="stroke:#181818;stroke-width:1.0;"/><text fill="#000000" font-family="sans-serif" font-size="13" lengthAdjust="spacing" textLength="23" x="137" y="305.2569">use</text></g><!--link a3b6110a402cbfd9b5b8ae1e92bbdc41 to 8d345fc053c09834ac60f47bb94e34ed--><g id="link_a3b6110a402cbfd9b5b8ae1e92bbdc41_8d345fc053c09834ac60f47bb94e34ed"><path codeLine="58" d="M402.14,141.56 C415.23,172.08 431.05,208.99 437.75,224.61 " fill="none" id="a3b6110a402cbfd9b5b8ae1e92bbdc41-8d345fc053c09834ac60f47bb94e34ed" style="stroke:#181818;stroke-width:1.0;"/></g><!--link 8d345fc053c09834ac60f47bb94e34ed to ccd26c1d88e1cf763d32a2c1cf438451--><g id="link_8d345fc053c09834ac60f47bb94e34ed_ccd26c1d88e1cf763d32a2c1cf438451"><path codeLine="59" d="M446.12,242.11 C461.45,265.82 506.86,336.04 522.01,359.47 " fill="none" id="8d345fc053c09834ac60f47bb94e34ed-ccd26c1d88e1cf763d32a2c1cf438451" style="stroke:#181818;stroke-width:1.0;"/></g><!--link bc3d41b943e740d9690037b1963e934f to 63ea1de582ea4933dc37f8abda83cc76--><g id="link_bc3d41b943e740d9690037b1963e934f_63ea1de582ea4933dc37f8abda83cc76"><path codeLine="60" d="M378,497.78 C378,519.4 378,554.57 378,576.2 " fill="none" id="bc3d41b943e740d9690037b1963e934f-63ea1de582ea4933dc37f8abda83cc76" style="stroke:#181818;stroke-width:1.0;"/><text fill="#000000" font-family="sans-serif" font-size="13" lengthAdjust="spacing" textLength="7" x="379" y="542.5469">z</text></g><!--link a3b6110a402cbfd9b5b8ae1e92bbdc41 to bc3d41b943e740d9690037b1963e934f--><g id="link_a3b6110a402cbfd9b5b8ae1e92bbdc41_bc3d41b943e740d9690037b1963e934f"><path codeLine="61" d="M381.51,141.46 C380.62,225.99 378.8626,394.5103 378.2626,452.0103 " fill="none" id="a3b6110a402cbfd9b5b8ae1e92bbdc41-to-bc3d41b943e740d9690037b1963e934f" style="stroke:#181818;stroke-width:1.0;stroke-dasharray:7.0,7.0;"/><polygon fill="#181818" points="378.2,458.01,382.2937,449.0522,378.2522,453.0103,374.2941,448.9688,378.2,458.01" style="stroke:#181818;stroke-width:1.0;"/><text fill="#000000" font-family="sans-serif" font-size="13" lengthAdjust="spacing" textLength="23" x="380" y="305.2569">use</text></g><!--SRC=[ZPJBRYD734Nt_HKDhIO6BDM3h8SN0OBa2x8Dic2Hh8amajeZoPcCW_dtK2rxR2S6EYkrgidRX-HbqMutVTbl_zeUFWw7INHS_QmxFNvTZNGQ1KeZZWb8K7tYGgxvs4iM9As2uz_3oDF-VZheuJowqd9dRe05IzDCa9E0GiWv1NKo_ZRStF2iVdCp3DizVTIxyNgmkVxSYVuv3ByFT3nlE_5vN6t-cFQwiMFTJVTwV8gRwNAFq23M1YgvS0qnScyCpIM8ARdXsrD5lr9hs_ESG-WLSa-GOaPggNKK2Gn1eYPV_BygYgMtmh6hOYurjf94kYQDGAZevegEi_ghYgu7-yztEphhwNofvpk9olOqWvH4lbLddOJMi_CkLdk8FgalXfBVWaGEFYlLqhe8krvxzroWYiQ0KkCLv2B-ckFo_ns8NxuUQ3z9cpcQrAJPgG58m0uECtNEgLU9uejxor4JLcGda3feaaZOeCL8LajK6y3C8K_whr1eJu_JOVFyvdOtCUtUGVlfyU6uFUlLV8wqk4ZHp4SbDnH4zANLK79A5lsMp64Htvm529W9CcCMwBuXWR24cOokyg_0zdnSxxTyd4vJFwzDRdE9qTlJUJfQmEOfuxqkJdoTf4ODL6qmfM1ApQ5pnX4eTlGIIdhBIR4bxns12smvjM4hfDwQrvem-6i7JVk_At8vlH1y-65SPUVSrKSI0JixZEngCLzoSXroQnNCfIglLqcUaHj70RCVHCtWp07LkPYRhycc6A5RaIzfw_LcFMV5KeDtgPYmHESXEuYEAuPi4maflytv_Z7J92-A9IX1ZL4uvbwe2PN8vhJdUlmSpJQhnDwQgPvxJlQfG87j6M81zCFIre-tShk8EjwDg-ENrR1uPQtNibx_k7ZLNFGUJheQ5iTxeLkSsLB0hBBOgQKfpofBqxbKzlW_wdfgrE8tdnjrJ_p9p3skhXxXIdQhC5D69DlpX98nvGBiRJINNNzP8UaU8NIrGC-ExTRAwefTHLXyiu7FA_HmtCqhPFloaea-a2-fP30xK98cBG1tyTYIr8fpvfbEdvvJl_q3]--></g></svg>