<svg xmlns="http://www.w3.org/2000/svg" width="600" height="120" fill="none">
  <path fill="#000" d="M0 0h600v120H0z"/>
  <g fill="#fff" clip-path="url(#a)">
    <path fill-rule="evenodd" d="M143.058 29h8.86c-.018 7.562 0 14.708.052 22.27 3.513-3.642 7.821-5.42 12.925-5.332 5.294-.043 9.967 1.612 14.019 4.965 3.827 3.688 5.999 8.2 6.514 13.538.752 5.794-.29 11.23-3.127 16.308-3.606 5.496-8.696 8.58-15.27 9.252-4.827.538-9.239-.542-13.237-3.24a20.915 20.915 0 0 1-1.824-1.621c-.052 1.498-.07 2.996-.052 4.495h-8.86V75.418c.501-3.096 1.925-5.675 4.273-7.736-2.374-2.01-3.798-4.554-4.273-7.632V29Zm18.762 24.778c7.462-.276 12.1 3.21 13.915 10.454.731 3.65.418 7.204-.938 10.663-2.693 5.455-7.089 7.912-13.186 7.37-4.212-.363-7.356-2.367-9.433-6.01-.334-1.22-.681-2.44-1.042-3.66a10.648 10.648 0 0 0-3.596-4.86c2.275-1.862 3.682-4.25 4.221-7.162 1.263-2.938 3.399-4.942 6.411-6.01a19.472 19.472 0 0 1 3.648-.785Z" clip-rule="evenodd"/>
    <path d="M518.713 29h-8.86c-.017 11.186 0 22.371.052 33.557.459 3.117 1.866 5.695 4.222 7.736-2.356 2.04-3.763 4.619-4.222 7.736a698.225 698.225 0 0 0-.052 12.022h8.86c.018-3.973 0-7.945-.052-11.918-.428-3.16-1.836-5.774-4.221-7.84a12.808 12.808 0 0 0 3.7-5.436 80.085 80.085 0 0 1 1.459-4.704c2.012-4.495 5.486-6.76 10.423-6.795 2.908-.109 5.41.832 7.505 2.822 2.02 2.56 3.028 5.486 3.023 8.781.052 8.363.07 16.727.052 25.09h9.381c.048-9.376-.004-18.75-.157-28.121a28.98 28.98 0 0 0-.938-5.018c-1.126-4.124-3.507-7.278-7.14-9.46-3.575-1.805-7.361-2.537-11.361-2.196-4.783.35-8.657 2.39-11.622 6.115-.052-7.457-.07-14.914-.052-22.371ZM482.685 77.92V54.026h-7.649v-8.165h7.649v-12.29h9.368v12.29h10.743v8.165h-10.743v22.947c0 3.438 1.203 4.727 4.727 4.727h6.531v8.165h-8.594c-8.423 0-12.032-3.954-12.032-11.947ZM276.002 89.633c-13.321 0-21.83-8.68-21.83-22.432 0-13.579 8.767-22.603 22.088-22.603 11.345 0 18.392 6.274 20.197 16.244h-9.712c-1.203-5.157-4.899-8.337-10.657-8.337-7.477 0-12.376 6.016-12.376 14.696 0 8.595 4.899 14.525 12.376 14.525 5.672 0 9.454-3.266 10.571-8.337h9.798c-1.719 9.97-9.196 16.244-20.455 16.244Z"/>
    <path fill-rule="evenodd" d="M249.194 81.038h1.891v8.08h-4.899c-6.016 0-8.079-2.665-8.079-7.048-2.922 4.469-7.391 7.563-14.524 7.563-9.626 0-16.329-4.727-16.329-12.892 0-9.024 6.531-14.095 18.821-14.095h11.087v-2.664c0-4.899-3.524-7.907-9.626-7.907-5.5 0-9.196 2.578-9.883 6.446h-9.11c.945-8.594 8.336-13.923 19.423-13.923 11.688 0 18.392 5.586 18.392 15.986v17.618c0 2.235.946 2.836 2.836 2.836Zm-12.032-9.97v-1.546h-11.516c-5.759 0-8.939 2.148-8.939 6.617 0 3.696 3.094 6.274 8.165 6.274 7.735 0 12.204-4.555 12.29-11.344Z" clip-rule="evenodd"/>
    <path d="M349.159 74.593h-9.11c.258 9.54 8.337 15.04 20.111 15.04 10.657 0 18.65-5.329 18.65-13.751 0-9.798-8.165-11.86-18.22-13.064-6.36-.687-10.571-1.203-10.571-5.328 0-3.524 3.609-5.759 9.11-5.759 5.5 0 9.282 2.837 9.797 6.876h9.11c-.601-9.024-8.25-14.009-19.079-14.009-10.571-.086-18.048 5.329-18.048 13.665 0 9.11 7.907 11.259 17.962 12.462l.674.085c6.382.802 10.155 1.277 10.155 5.845 0 3.524-3.782 5.758-9.54 5.758-6.703 0-10.657-3.266-11.001-7.82ZM200.551 29h-8.815v31.744c0 3.633 1.633 7.054 4.408 9.234-2.775 2.18-4.408 5.601-4.408 9.235v10.389h8.815v-10.39c0-3.633-1.633-7.054-4.407-9.234 2.774-2.18 4.407-5.601 4.407-9.234V29ZM459.901 45.834h8.814v15.009c0 3.633-1.632 7.054-4.407 9.234-2.774-2.18-4.407-5.601-4.407-9.234V45.834Z"/>
    <path d="M464.308 70.077c2.775 2.18 4.407 5.601 4.407 9.235V89.7h-8.814V79.31c0-3.633 1.633-7.054 4.407-9.234ZM312.398 29h-8.814l-.07 24.088c0 3.633 1.633 7.262 4.408 9.442-2.775 2.18-4.408 5.394-4.408 9.027l.07 18.045h8.814l-.069-18.045c0-3.633-1.633-6.847-4.407-9.027 2.774-2.18 4.407-5.809 4.407-9.442L312.398 29Z"/>
    <path d="M326.675 45.224c3.684-.035 7.367 0 11.049.105a1329.673 1329.673 0 0 1-16.573 17.824c5.43 8.063 10.842 16.182 16.238 24.277l.003.004.01.016 1.364 2.046h-11.048a1430.655 1430.655 0 0 1-6.515-9.67 1461 1461 0 0 0-10.579-17.3 1243.369 1243.369 0 0 0 16.051-17.302ZM464.308 40.434a5.509 5.509 0 1 0 0-11.018 5.509 5.509 0 0 0 0 11.018ZM404.895 45.254c3.556-.236 6.896.499 10.021 2.207a15.026 15.026 0 0 1 4.857 5.284c2.732-4.135 6.567-6.547 11.503-7.234 4.304-.678 8.394-.028 12.27 1.95 3.376 2.158 5.575 5.185 6.595 9.081.565 2.222.871 4.48.92 6.773.051 8.79.069 17.581.051 26.372h-9.713c.038-9.236-.013-18.471-.154-27.706-.267-2.45-1.204-4.588-2.812-6.414-1.537-1.427-3.361-2.128-5.47-2.103-5.014.136-8.252 2.599-9.714 7.388a20.069 20.069 0 0 0-.613 5.85c-.051 7.661-.069 15.323-.051 22.985h-9.714c.017-8.448 0-16.897-.051-25.346a14.862 14.862 0 0 0-1.841-7.388c-2.298-3.027-5.315-4.105-9.049-3.233-2.684.602-4.712 2.09-6.084 4.464a12.07 12.07 0 0 0-1.534 5.541c-.654 2.53-1.967 4.634-3.937 6.311 2.56 2.145 3.975 4.898 4.244 8.26.051 3.797.068 7.594.051 11.391h-8.794c-.017-3.865 0-7.73.052-11.595.328-3.278 1.743-5.963 4.243-8.056-2.237-1.906-3.617-4.317-4.141-7.234a485.064 485.064 0 0 1-.154-16.932h8.794a82.61 82.61 0 0 0 .051 4.105c2.796-2.865 6.187-4.439 10.174-4.72ZM50.51 39.845c-1.586-3.166.72-6.89 4.265-6.89h64.439c3.545 0 5.85 3.724 4.265 6.89l-7.153 14.284a4.767 4.767 0 0 1-4.264 2.632H61.927a4.77 4.77 0 0 1-4.265-2.632L50.51 39.845ZM105.598 78.438c1.585 3.166-.721 6.89-4.265 6.89H72.656c-3.545 0-5.85-3.724-4.265-6.89l7.152-14.284a4.769 4.769 0 0 1 4.265-2.632H94.18a4.77 4.77 0 0 1 4.265 2.632l7.153 14.284Z"/>
  </g>
  <defs>
    <clipPath id="a">
      <path fill="#fff" d="M50 29h500v62H50z"/>
    </clipPath>
  </defs>
</svg>
