<svg width="620" height="157" viewBox="0 0 620 157" fill="none" xmlns="http://www.w3.org/2000/svg">
<rect width="620" height="157" fill="#F7F6F2"/>
<path fill-rule="evenodd" clip-rule="evenodd" d="M40 77.1185C40 56.9962 54.9455 41.563 75.5556 41.563C87.9612 41.563 98.9009 47.7166 104.859 57.387L91.3796 65.202C88.352 59.9269 82.4907 56.8009 75.5556 56.8009C63.4437 56.8009 55.6287 64.9083 55.6287 77.1185C55.6287 89.3288 63.4437 97.4362 75.5556 97.4362C82.4907 97.4362 88.4503 94.3088 91.3796 89.0337L104.859 96.8487C98.9992 106.52 88.0582 112.673 75.5556 112.673C54.9455 112.673 40 97.2395 40 77.1185Z" fill="#141414"/>
<path fill-rule="evenodd" clip-rule="evenodd" d="M111.7 111.305H126.351V40H111.7V111.305Z" fill="#141414"/>
<path fill-rule="evenodd" clip-rule="evenodd" d="M170.796 86.8867C170.796 79.9515 165.912 75.3609 159.563 75.3609C153.214 75.3609 148.329 79.9515 148.329 86.8867C148.329 93.8204 153.214 98.4124 159.563 98.4124C165.912 98.4124 170.796 93.8204 170.796 86.8867ZM133.678 86.8867C133.678 72.3319 145.203 61.0985 159.563 61.0985C173.922 61.0985 185.448 72.3319 185.448 86.8867C185.448 101.44 173.922 112.673 159.563 112.673C145.203 112.673 133.678 101.44 133.678 86.8867Z" fill="#141414"/>
<path fill-rule="evenodd" clip-rule="evenodd" d="M238.982 62.467V111.307H224.33V106.715C221.693 110.33 216.809 112.673 210.361 112.673C200.497 112.673 192.096 105.641 192.096 92.4537V62.467H206.748V90.3059C206.748 96.3612 210.557 99.1935 215.246 99.1935C220.618 99.1935 224.33 96.0675 224.33 89.1337V62.467H238.982Z" fill="#141414"/>
<path fill-rule="evenodd" clip-rule="evenodd" d="M284.207 86.8868C284.207 79.5609 279.323 74.9703 272.583 74.9703C265.843 74.9703 260.959 79.5609 260.959 86.8868C260.959 94.2127 265.843 98.8033 272.583 98.8033C279.323 98.8033 284.207 94.2127 284.207 86.8868ZM298.859 42.9301V111.306H284.207V106.715C280.983 110.427 276.198 112.674 269.652 112.674C256.856 112.674 246.307 101.44 246.307 86.8868C246.307 72.332 256.856 61.0986 269.652 61.0986C276.198 61.0986 280.983 63.3461 284.207 67.0582V42.9301H298.859Z" fill="#141414"/>
<path fill-rule="evenodd" clip-rule="evenodd" d="M344.477 85.9091L336.467 60.8068L328.456 85.9091H344.477ZM349.164 100.561H323.768L320.35 111.307H303.255L326.503 42.9306H346.43L369.677 111.307H352.584L349.164 100.561Z" fill="#141414"/>
<path fill-rule="evenodd" clip-rule="evenodd" d="M442.943 111.306H427.314V71.5505L409.633 100.56H407.876L390.197 71.5505V111.306H374.567V42.9301H390.197L408.755 73.3089L427.314 42.9301H442.943V111.306Z" fill="#141414"/>
<path fill-rule="evenodd" clip-rule="evenodd" d="M491.108 96.9476L481.242 86.4943L492.475 76.5316L503.415 88.1557C505.173 85.0297 506.247 81.3176 506.247 77.119C506.247 64.9088 497.457 56.8014 486.32 56.8014C475.187 56.8014 466.395 64.9088 466.395 77.119C466.395 89.3293 475.187 97.4353 486.32 97.4353C487.982 97.4353 489.545 97.24 491.108 96.9476ZM514.062 99.4874L520.899 106.715L509.666 116.679L502.341 108.961C497.554 111.306 492.085 112.673 486.32 112.673C466.687 112.673 450.766 97.24 450.766 77.119C450.766 56.9967 466.687 41.5635 486.32 41.5635C505.955 41.5635 521.877 56.9967 521.877 77.119C521.877 85.7128 518.947 93.4308 514.062 99.4874Z" fill="#141414"/>
<path fill-rule="evenodd" clip-rule="evenodd" d="M564.37 66.3733C564.37 61.3919 560.855 57.5828 556.067 57.5828H545.812V75.1652H556.067C560.855 75.1652 564.37 71.3547 564.37 66.3733ZM580 66.3733C580 79.3651 569.548 89.8156 556.067 89.8156H545.812V111.306H530.182V42.931H556.067C569.548 42.931 580 53.3816 580 66.3733Z" fill="#141414"/>
</svg>
